<!-- Generator: Adobe Illustrator 19.0.0, SVG Export Plug-In . SVG Version: 6.00 Build 0)  -->
<svg version="1.1" id="Capa_1" xmlns="http://www.w3.org/2000/svg" xmlns:xlink="http://www.w3.org/1999/xlink" x="0px" y="0px" viewBox="0 0 512 512" style="enable-background:new 0 0 512 512;" xml:space="preserve">
<path class="slot-pull" style="fill:#8B9BA9;" d="M423.404,397.65h-14.165v-15.453h14.165c21.302,0,38.632-17.33,38.632-38.632v-90.141h15.453v90.141  C477.489,373.388,453.227,397.65,423.404,397.65z"/>
<circle class="slot-circle" style="fill:#C5324F;" cx="469.763" cy="245.698" r="15.453"/>
<path style="fill:#FF5368;" d="M181.312,54.085H284.33V30.905C284.33,13.836,270.494,0,253.425,0h-41.207  c-17.069,0-30.905,13.836-30.905,30.905V54.085z"/>
<path style="fill:#C5324F;" d="M182.285,23.179c-0.636,2.469-0.974,5.058-0.974,7.726v23.179l51.166,16.483l51.852-16.483V30.905  C284.33,13.836,270.494,0,253.425,0l0,0c0,12.801-10.378,23.179-23.179,23.179H182.285z"/>
<path style="fill:#8B9BA9;" d="M160.708,84.99l72.113,37.087l72.113-37.087V74.688c0-11.379-9.224-20.604-20.604-20.604H181.312  c-11.379,0-20.604,9.224-20.604,20.604V84.99z"/>
<path style="fill:#FFB545;" d="M47.388,512h370.865V115.895c0-17.069-13.836-30.905-30.905-30.905H78.294  c-17.069,0-30.905,13.836-30.905,30.905V512z"/>
<path style="fill:#FF983B;" d="M47.388,481.095V512h370.865V115.895c0-17.069-13.836-30.905-30.905-30.905v396.105H47.388z"/>
<path style="fill:#FF7E40;" d="M232.821,132.378H42.237c-8.534,0-15.453,6.919-15.453,15.453v195.734  c0,8.534,6.919,15.453,15.453,15.453h190.583h190.583c8.534,0,15.453-6.919,15.453-15.453V147.831  c0-8.534-6.919-15.453-15.453-15.453H232.821z"/>
<path style="fill:#FF6344;" d="M423.404,132.378h-15.453v195.734H26.785v15.453c0,8.534,6.919,15.453,15.453,15.453h190.583h190.583  c8.534,0,15.453-6.919,15.453-15.453V147.831C438.857,139.297,431.938,132.378,423.404,132.378z"/>
<g>
	<rect x="80.869" y="186.463" style="fill:#FFF9EB;" width="101.298" height="118.471"/>
	<rect x="283.475" y="186.463" style="fill:#FFF9EB;" width="101.298" height="118.471"/>
	<rect x="182.167" y="186.463" style="fill:#E9E3D5;" width="101.298" height="118.471"/>
	<polygon style="fill:#E9E3D5;" points="283.472,274.028 283.472,304.934 384.773,304.934 384.773,186.463 353.867,186.463    353.867,274.028  "/>
</g>
<rect x="182.167" y="274.028" style="fill:#D3CDBF;" width="101.298" height="30.905"/>
<rect x="80.869" y="274.028" style="fill:#E9E3D5;" width="101.298" height="30.905"/>
<path style="fill:#8B9BA9;" d="M160.708,420.829L160.708,420.829c0,17.069,13.836,30.905,30.905,30.905h82.414  c17.069,0,30.905-13.836,30.905-30.905l0,0c0-17.069-13.836-30.905-30.905-30.905h-82.414  C174.545,389.924,160.708,403.76,160.708,420.829z"/>
<path style="fill:#4D5967;" d="M273.341,428.555h-82.414c-4.267,0-7.726-3.459-7.726-7.726c0-4.267,3.459-7.726,7.726-7.726h82.414  c4.267,0,7.726,3.459,7.726,7.726C281.067,425.096,277.609,428.555,273.341,428.555z"/>
</svg>