<?xml version="1.0" encoding="utf-8"?>
<!-- Generator: Adobe Illustrator 28.0.0, SVG Export Plug-In . SVG Version: 6.00 Build 0)  -->
<svg version="1.1" id="Capa_1" xmlns="http://www.w3.org/2000/svg" xmlns:xlink="http://www.w3.org/1999/xlink" x="0px" y="0px"
	 viewBox="0 0 512 512" style="enable-background:new 0 0 512 512;" xml:space="preserve">
<style type="text/css">
	.st0{fill:#FF5368;}
	.st1{fill:#C5324F;}
	.st2{fill:#8B9BA9;}
	.st3{fill:#FFB545;}
	.st4{fill:#FF983B;}
	.st5{fill:#FF7E40;}
	.st6{fill:#FF6344;}
	.st7{fill:#4D5967;}
</style>
<path class="st0" d="M204.5,54.1h103V30.9c0-17.1-13.8-30.9-30.9-30.9h-41.2c-17.1,0-30.9,13.8-30.9,30.9L204.5,54.1L204.5,54.1z"/>
<path class="st1" d="M205.5,23.2c-0.6,2.5-1,5.1-1,7.7v23.2l51.2,16.5l51.9-16.5V30.9c0-17.1-13.8-30.9-30.9-30.9l0,0
	c0,12.8-10.4,23.2-23.2,23.2H205.5z"/>
<path class="st2" d="M183.9,85l72.1,37.1L328.1,85V74.7c0-11.4-9.2-20.6-20.6-20.6h-103c-11.4,0-20.6,9.2-20.6,20.6V85z"/>
<path class="st3" d="M70.6,512h370.9V115.9c0-17.1-13.8-30.9-30.9-30.9H101.5c-17.1,0-30.9,13.8-30.9,30.9L70.6,512L70.6,512z"/>
<path class="st4" d="M70.6,481.1V512h370.9V115.9c0-17.1-13.8-30.9-30.9-30.9v396.1H70.6z"/>
<path class="st5" d="M256,132.4H65.4c-8.5,0-15.5,6.9-15.5,15.5v195.7c0,8.5,6.9,15.5,15.5,15.5H256h190.6c8.5,0,15.5-6.9,15.5-15.5
	V147.8c0-8.5-6.9-15.5-15.5-15.5L256,132.4L256,132.4z"/>
<path class="st6" d="M446.6,132.4h-15.5v195.7H50v15.5c0,8.5,6.9,15.5,15.5,15.5H256h190.6c8.5,0,15.5-6.9,15.5-15.5V147.8
	C462,139.3,455.1,132.4,446.6,132.4z"/>
<path class="st2" d="M183.9,420.8L183.9,420.8c0,17.1,13.8,30.9,30.9,30.9h82.4c17.1,0,30.9-13.8,30.9-30.9l0,0
	c0-17.1-13.8-30.9-30.9-30.9h-82.4C197.7,389.9,183.9,403.8,183.9,420.8z"/>
<path class="st7" d="M296.5,428.6h-82.4c-4.3,0-7.7-3.5-7.7-7.7s3.5-7.7,7.7-7.7h82.4c4.3,0,7.7,3.5,7.7,7.7
	C304.2,425.1,300.8,428.6,296.5,428.6z"/>
</svg>
